<?xml version="1.0" encoding="UTF-8"?> <svg xmlns="http://www.w3.org/2000/svg" id="Layer_1" data-name="Layer 1" viewBox="0 0 140 64.78"><defs><style>.cls-1{fill:#fff;}</style></defs><path class="cls-1" d="M70,29.63c-.55-10-8.14-15.29-17.08-14.79-9.56.53-16.3,7.39-15.79,16.49S45,46.63,55.81,46c4.86-.26,8.57-1.66,11.25-4.13a1.89,1.89,0,0,0,0-2.78l-3.24-3a1.92,1.92,0,0,0-2.46-.16,9.54,9.54,0,0,1-5.66,2c-3.91.22-6.64-1.42-7.7-4.44l20.26-1.12a1.91,1.91,0,0,0,1.8-1.89C70.06,30.17,70.05,29.89,70,29.63ZM47.52,27.9a6.31,6.31,0,0,1,12.41-.68Zm23.77-3.51h2.53V34.56c0,7.77,4.53,11.57,12.31,11.57a16.76,16.76,0,0,0,5.68-.9A1.91,1.91,0,0,0,93,42.81l-1.39-3.92a1.9,1.9,0,0,0-2.31-1.19,6.24,6.24,0,0,1-1.61.21c-1.91,0-3.2-1.23-3.2-3.46V24.39h5a1.9,1.9,0,0,0,1.9-1.9V18.34a1.9,1.9,0,0,0-1.9-1.89h-5V8.86A1.89,1.89,0,0,0,82.56,7L75.72,8.56a1.9,1.9,0,0,0-1.9,1.9v6H71.29a1.89,1.89,0,0,0-1.89,1.89v4.15A1.9,1.9,0,0,0,71.29,24.39ZM99.2,11.25a5.63,5.63,0,1,0-5.63-5.62A5.64,5.64,0,0,0,99.2,11.25Zm38.31,19-4,.52a2.25,2.25,0,0,0-1.87,1.75,4.42,4.42,0,0,1-1.28,2.25,5.14,5.14,0,0,1-3.55,1.13,4.65,4.65,0,0,1-3.23-1.37V24h5a1.89,1.89,0,0,0,1.9-1.89V17.92a1.89,1.89,0,0,0-1.9-1.89h-5V10a1.9,1.9,0,0,0-1.9-1.9l-6.84-1.59A1.89,1.89,0,0,0,113,8.44V16h-2.52a1.89,1.89,0,0,0-1.9,1.89v4.15a1.89,1.89,0,0,0,1.9,1.89H113v5.88a19.7,19.7,0,0,0,.28,3.58l-.06.17a2.69,2.69,0,0,1-1.1,1.21,5.48,5.48,0,0,1-2.26.77,6.93,6.93,0,0,1-2.66-.16,4.5,4.5,0,0,1-1.92-1,2.21,2.21,0,0,1-.71-1.21,1.87,1.87,0,0,1,0-.35v-.7l0-1.47c0-.05,0-.1,0-.15V16.8a1.9,1.9,0,0,0-1.9-1.89H95.78a1.9,1.9,0,0,0-1.9,1.89V30.54c0,.05,0,.1,0,.15l0,1.47v.66c0,.32,0,.63.06,1a13,13,0,0,0,.34,1.93,12.67,12.67,0,0,0,4.13,6.55,14.87,14.87,0,0,0,6.32,3.09,17.14,17.14,0,0,0,6.57.19A15.44,15.44,0,0,0,117.71,43l.6-.45a13.11,13.11,0,0,0,2.52,1.58,14.15,14.15,0,0,0,5.71,1.34,14.49,14.49,0,0,0,5.73-1,12.91,12.91,0,0,0,4.89-3.54,12,12,0,0,0,2.62-5.46,13.06,13.06,0,0,0,.2-3.15A2.19,2.19,0,0,0,137.51,30.25ZM35.42,38.67c0-1.22,0-2.45,0-3.68l0-3.68c0-1.74,0-3.49-.07-5.24V17.19a1.86,1.86,0,0,0-1.86-1.86H27a1.86,1.86,0,0,0-1.86,1.86V19c-2.07-2.85-5.32-4.19-9.52-4.19C7.6,14.83.77,20.53.77,29.42S7.6,44.06,15.66,44.06c3.77,0,6.79-1.12,8.86-3.41,0,.57,0,1.13,0,1.69v.33c0,.1,0,.2,0,.3s0,.2,0,.3,0,.19,0,.29v.14l0,.14a2.51,2.51,0,0,1,0,.27,2,2,0,0,1,0,.26c0,.09,0,.18-.05.26a6.35,6.35,0,0,1-.63,1.78,5.48,5.48,0,0,1-.52.77,5.89,5.89,0,0,1-.71.7,9.87,9.87,0,0,1-4.51,1.9,13.71,13.71,0,0,1-2.68.22l-.59,0h-.13l-.13,0-.33,0a9.67,9.67,0,0,1-1.26-.28,8.81,8.81,0,0,1-2.24-1l-.27-.16-.26-.18-.22-.16-.08,0,0,0L9.64,48,8.41,46.83q-.33-.37-.6-.72h0a1.34,1.34,0,0,0-1.68-.39l-5.4,2.8a1.34,1.34,0,0,0-.53,1.87c.14.24.29.47.44.71.41.61.84,1.19,1.27,1.72l0,0,.2.21L3.5,54.5l.09.09.13.12L4,55c.2.18.34.29.5.42s.31.26.48.38l.49.37a18.53,18.53,0,0,0,4.36,2.29,20.24,20.24,0,0,0,2.31.69l.57.12.33.07.32.05c.43.07.84.12,1.25.16a23,23,0,0,0,4.7-.08,22.1,22.1,0,0,0,4.63-1.06,18.35,18.35,0,0,0,4.53-2.28,16,16,0,0,0,2.09-1.71,15.17,15.17,0,0,0,1.81-2.09,15.88,15.88,0,0,0,2.38-4.92c.06-.22.11-.43.17-.64s.1-.43.14-.64.08-.43.12-.64l0-.32,0-.31c0-.22,0-.43.07-.63s0-.42,0-.63l0-.62V38.67Zm-10.73-8.1c-.52,3-3.12,5-6.51,5-3.81,0-6.66-2.51-6.66-6.2s2.85-6.15,6.66-6.15c3.53,0,6.2,2.12,6.56,5.37C24.72,29.29,24.71,29.93,24.69,30.57Zm24,31H43.18V52.17a.71.71,0,0,0-.71-.71H40.18a.71.71,0,0,0-.7.71V63.82a.7.7,0,0,0,.7.7h8.54a.7.7,0,0,0,.7-.7V62.3A.7.7,0,0,0,48.72,61.6Zm14.13-9.52a8.32,8.32,0,0,0-7.45,0,6.62,6.62,0,0,0-2.6,2.43A6.52,6.52,0,0,0,51.87,58,6.44,6.44,0,0,0,55.4,63.9a8.32,8.32,0,0,0,7.45,0,6.67,6.67,0,0,0,0-11.82ZM62.19,60a3.31,3.31,0,0,1-1.26,1.31,3.55,3.55,0,0,1-1.8.46,3.51,3.51,0,0,1-1.79-.46A3.34,3.34,0,0,1,56.07,60a3.94,3.94,0,0,1-.46-2,3.84,3.84,0,0,1,.46-1.94,3.3,3.3,0,0,1,1.27-1.32,3.52,3.52,0,0,1,1.79-.47,3.55,3.55,0,0,1,1.8.47,3.27,3.27,0,0,1,1.26,1.32A4,4,0,0,1,62.66,58,4.06,4.06,0,0,1,62.19,60ZM75,54.73a3.91,3.91,0,0,1,4.56.61.67.67,0,0,0,.92,0l1.33-1.2a.72.72,0,0,0,0-1A6.55,6.55,0,0,0,80,51.83a8.16,8.16,0,0,0-3.23-.63,7.85,7.85,0,0,0-3.69.87,6.44,6.44,0,0,0-2.57,2.42,7.07,7.07,0,0,0,0,7A6.42,6.42,0,0,0,73,63.91a7.62,7.62,0,0,0,3.69.87A7.82,7.82,0,0,0,80,64.15a6.14,6.14,0,0,0,1.88-1.26.72.72,0,0,0,0-1L80.5,60.66a.69.69,0,0,0-.92,0,3.94,3.94,0,0,1-4.56.62A3.41,3.41,0,0,1,73.72,60a4.16,4.16,0,0,1-.45-2,4.05,4.05,0,0,1,.45-1.94A3.37,3.37,0,0,1,75,54.73Zm18.64-2.85a.7.7,0,0,0-.64-.42H90.3a.7.7,0,0,0-.64.42L84.5,63.54a.7.7,0,0,0,.65,1h2.22a.69.69,0,0,0,.65-.44l.85-2.1H94.4l.85,2.1a.68.68,0,0,0,.64.44H98.2a.7.7,0,0,0,.64-1ZM90,59.26l1.68-4.18,1.69,4.18Zm21.47,2.34h-5.53V52.17a.71.71,0,0,0-.71-.71h-2.29a.71.71,0,0,0-.71.71V63.82a.7.7,0,0,0,.71.7h8.53a.7.7,0,0,0,.7-.7V62.3A.7.7,0,0,0,111.42,61.6Z"></path></svg> 